<svg xmlns="http://www.w3.org/2000/svg" xmlns:xlink="http://www.w3.org/1999/xlink" width="27.18" height="21.155"  viewBox="0 0 27.18 21.155"><defs><style>.a{fill:none;}.b{clip-path:url(#a);}.c{fill:#ff7a04;}</style><clipPath id="a"><rect class="a" width="27.18" height="21.155"/></clipPath></defs><g transform="translate(13.59 12.15)"><g class="b" transform="translate(-13.59 -10.578)"><path class="c" d="M13.225,10.741V1.356L8.713,6.144l-.784.847ZM19.284,6.97,18.5,6.144,13.988,1.356v9.385ZM13.225,19.829V12.245h0v-.551l-5.042-3.6,4.661,11.673v.064h0a.974.974,0,0,0,.169.3h0l.127.127.064.042Zm5.8-11.737-5.042,3.6v.551h0V20.3l.064-.042.127-.127h0a.975.975,0,0,0,.169-.3h0v-.064Zm1.419-1.017h0l-.275.191L15.089,20.041V20.1h0a1.589,1.589,0,0,1-.3.508h0l-.254.233-.3.169h0a1.547,1.547,0,0,1-1.208,0h0l-.3-.169-.254-.233h0a1.589,1.589,0,0,1-.3-.508h0v-.064L7.039,7.266l-.275-.191h0L.9,2.9.811,2.839l-.3-.233h0A1.5,1.5,0,0,1,1.531,0H25.7A1.5,1.5,0,0,1,26.72,2.606h0l-.3.233-.085.064ZM14.5.763,19.92,6.525l5.953-4.258.106-.064.212-.169h0A.741.741,0,0,0,25.682.763H14.5Zm-1.78,0H1.531a.741.741,0,0,0-.508,1.271h0l.212.169.106.064L7.314,6.525Z" transform="translate(-0.027)"/></g></g></svg>